<mxfile host="app.diagrams.net" modified="2023-05-17T02:41:41.693Z" agent="Mozilla/5.0 (Windows NT 10.0; Win64; x64) AppleWebKit/537.36 (KHTML, like Gecko) Chrome/113.0.0.0 Safari/537.36" etag="eW6JRVGynaXmcADH0uLb" version="21.3.2" type="github">
  <diagram name="Page-1" id="tQe-SDcEBAgHt23FgPnO">
    <mxGraphModel dx="2150" dy="872" grid="1" gridSize="10" guides="1" tooltips="1" connect="1" arrows="1" fold="1" page="1" pageScale="1" pageWidth="850" pageHeight="1100" math="0" shadow="0">
      <root>
        <mxCell id="0" />
        <mxCell id="1" parent="0" />
        <mxCell id="NI7PQchnpD4Go9YrwPrF-54" value="" style="rounded=0;whiteSpace=wrap;html=1;fillColor=#FFCCCC;" vertex="1" parent="1">
          <mxGeometry x="880" y="80" width="830" height="590" as="geometry" />
        </mxCell>
        <mxCell id="NI7PQchnpD4Go9YrwPrF-50" value="" style="rounded=0;whiteSpace=wrap;html=1;fillColor=#C3FFBF;" vertex="1" parent="1">
          <mxGeometry x="30" y="80" width="830" height="590" as="geometry" />
        </mxCell>
        <mxCell id="NI7PQchnpD4Go9YrwPrF-4" style="edgeStyle=orthogonalEdgeStyle;rounded=0;orthogonalLoop=1;jettySize=auto;html=1;exitX=0.5;exitY=0.5;exitDx=0;exitDy=0;exitPerimeter=0;" edge="1" parent="1" source="NI7PQchnpD4Go9YrwPrF-1" target="NI7PQchnpD4Go9YrwPrF-2">
          <mxGeometry relative="1" as="geometry" />
        </mxCell>
        <mxCell id="NI7PQchnpD4Go9YrwPrF-1" value="Pengguna" style="shape=umlActor;verticalLabelPosition=bottom;verticalAlign=top;html=1;outlineConnect=0;" vertex="1" parent="1">
          <mxGeometry x="60" y="220" width="30" height="60" as="geometry" />
        </mxCell>
        <mxCell id="NI7PQchnpD4Go9YrwPrF-5" style="edgeStyle=orthogonalEdgeStyle;rounded=0;orthogonalLoop=1;jettySize=auto;html=1;exitX=1;exitY=0.5;exitDx=0;exitDy=0;entryX=0;entryY=0.5;entryDx=0;entryDy=0;" edge="1" parent="1" source="NI7PQchnpD4Go9YrwPrF-2" target="NI7PQchnpD4Go9YrwPrF-3">
          <mxGeometry relative="1" as="geometry" />
        </mxCell>
        <mxCell id="NI7PQchnpD4Go9YrwPrF-2" value="Login" style="rounded=0;whiteSpace=wrap;html=1;" vertex="1" parent="1">
          <mxGeometry x="180" y="220" width="120" height="60" as="geometry" />
        </mxCell>
        <mxCell id="NI7PQchnpD4Go9YrwPrF-7" style="edgeStyle=orthogonalEdgeStyle;rounded=0;orthogonalLoop=1;jettySize=auto;html=1;exitX=1;exitY=0.5;exitDx=0;exitDy=0;" edge="1" parent="1" source="NI7PQchnpD4Go9YrwPrF-3" target="NI7PQchnpD4Go9YrwPrF-6">
          <mxGeometry relative="1" as="geometry" />
        </mxCell>
        <mxCell id="NI7PQchnpD4Go9YrwPrF-3" value="Email/username, dan password" style="rounded=0;whiteSpace=wrap;html=1;" vertex="1" parent="1">
          <mxGeometry x="365" y="220" width="120" height="60" as="geometry" />
        </mxCell>
        <mxCell id="NI7PQchnpD4Go9YrwPrF-37" style="edgeStyle=orthogonalEdgeStyle;rounded=0;orthogonalLoop=1;jettySize=auto;html=1;exitX=1;exitY=0.5;exitDx=0;exitDy=0;" edge="1" parent="1" source="NI7PQchnpD4Go9YrwPrF-6" target="NI7PQchnpD4Go9YrwPrF-36">
          <mxGeometry relative="1" as="geometry" />
        </mxCell>
        <mxCell id="NI7PQchnpD4Go9YrwPrF-6" value="Kombinasi email/username dengan password benar" style="rounded=0;whiteSpace=wrap;html=1;" vertex="1" parent="1">
          <mxGeometry x="540" y="220" width="140" height="60" as="geometry" />
        </mxCell>
        <mxCell id="NI7PQchnpD4Go9YrwPrF-14" style="edgeStyle=orthogonalEdgeStyle;rounded=0;orthogonalLoop=1;jettySize=auto;html=1;exitX=1;exitY=0.5;exitDx=0;exitDy=0;entryX=0;entryY=0.5;entryDx=0;entryDy=0;" edge="1" parent="1" source="NI7PQchnpD4Go9YrwPrF-8" target="NI7PQchnpD4Go9YrwPrF-9">
          <mxGeometry relative="1" as="geometry" />
        </mxCell>
        <mxCell id="NI7PQchnpD4Go9YrwPrF-17" style="edgeStyle=orthogonalEdgeStyle;rounded=0;orthogonalLoop=1;jettySize=auto;html=1;exitX=0.5;exitY=1;exitDx=0;exitDy=0;entryX=0;entryY=0.5;entryDx=0;entryDy=0;" edge="1" parent="1" source="NI7PQchnpD4Go9YrwPrF-8" target="NI7PQchnpD4Go9YrwPrF-16">
          <mxGeometry relative="1" as="geometry" />
        </mxCell>
        <mxCell id="NI7PQchnpD4Go9YrwPrF-8" value="Sudah Login" style="rhombus;whiteSpace=wrap;html=1;" vertex="1" parent="1">
          <mxGeometry x="890" y="200" width="120" height="100" as="geometry" />
        </mxCell>
        <mxCell id="NI7PQchnpD4Go9YrwPrF-19" style="edgeStyle=orthogonalEdgeStyle;rounded=0;orthogonalLoop=1;jettySize=auto;html=1;exitX=1;exitY=0.5;exitDx=0;exitDy=0;entryX=0;entryY=0.5;entryDx=0;entryDy=0;" edge="1" parent="1" source="NI7PQchnpD4Go9YrwPrF-9" target="NI7PQchnpD4Go9YrwPrF-10">
          <mxGeometry relative="1" as="geometry" />
        </mxCell>
        <mxCell id="NI7PQchnpD4Go9YrwPrF-34" style="edgeStyle=orthogonalEdgeStyle;rounded=0;orthogonalLoop=1;jettySize=auto;html=1;exitX=0.5;exitY=1;exitDx=0;exitDy=0;entryX=0.5;entryY=0;entryDx=0;entryDy=0;" edge="1" parent="1" source="NI7PQchnpD4Go9YrwPrF-9" target="NI7PQchnpD4Go9YrwPrF-28">
          <mxGeometry relative="1" as="geometry" />
        </mxCell>
        <mxCell id="NI7PQchnpD4Go9YrwPrF-9" value="Membuat catatan" style="rounded=0;whiteSpace=wrap;html=1;" vertex="1" parent="1">
          <mxGeometry x="1080" y="220" width="120" height="60" as="geometry" />
        </mxCell>
        <mxCell id="NI7PQchnpD4Go9YrwPrF-30" style="edgeStyle=orthogonalEdgeStyle;rounded=0;orthogonalLoop=1;jettySize=auto;html=1;exitX=1;exitY=0.5;exitDx=0;exitDy=0;" edge="1" parent="1" source="NI7PQchnpD4Go9YrwPrF-10" target="NI7PQchnpD4Go9YrwPrF-12">
          <mxGeometry relative="1" as="geometry" />
        </mxCell>
        <mxCell id="NI7PQchnpD4Go9YrwPrF-31" style="edgeStyle=orthogonalEdgeStyle;rounded=0;orthogonalLoop=1;jettySize=auto;html=1;exitX=1;exitY=0.25;exitDx=0;exitDy=0;entryX=0;entryY=0.75;entryDx=0;entryDy=0;" edge="1" parent="1" source="NI7PQchnpD4Go9YrwPrF-10" target="NI7PQchnpD4Go9YrwPrF-13">
          <mxGeometry relative="1" as="geometry">
            <Array as="points">
              <mxPoint x="1380" y="250" />
              <mxPoint x="1425" y="250" />
              <mxPoint x="1425" y="155" />
            </Array>
          </mxGeometry>
        </mxCell>
        <mxCell id="NI7PQchnpD4Go9YrwPrF-33" style="edgeStyle=orthogonalEdgeStyle;rounded=0;orthogonalLoop=1;jettySize=auto;html=1;exitX=1;exitY=0.75;exitDx=0;exitDy=0;entryX=0;entryY=0.5;entryDx=0;entryDy=0;" edge="1" parent="1" source="NI7PQchnpD4Go9YrwPrF-10" target="NI7PQchnpD4Go9YrwPrF-11">
          <mxGeometry relative="1" as="geometry">
            <Array as="points">
              <mxPoint x="1380" y="250" />
              <mxPoint x="1425" y="250" />
              <mxPoint x="1425" y="350" />
            </Array>
          </mxGeometry>
        </mxCell>
        <mxCell id="NI7PQchnpD4Go9YrwPrF-10" value="Memasukkan catatan kedalam kategori" style="rounded=0;whiteSpace=wrap;html=1;" vertex="1" parent="1">
          <mxGeometry x="1260" y="220" width="120" height="60" as="geometry" />
        </mxCell>
        <mxCell id="NI7PQchnpD4Go9YrwPrF-11" value="Kegiatan" style="rounded=0;whiteSpace=wrap;html=1;" vertex="1" parent="1">
          <mxGeometry x="1470" y="320" width="120" height="60" as="geometry" />
        </mxCell>
        <mxCell id="NI7PQchnpD4Go9YrwPrF-12" value="Organisasi" style="rounded=0;whiteSpace=wrap;html=1;" vertex="1" parent="1">
          <mxGeometry x="1470" y="220" width="120" height="60" as="geometry" />
        </mxCell>
        <mxCell id="NI7PQchnpD4Go9YrwPrF-13" value="Belajar" style="rounded=0;whiteSpace=wrap;html=1;" vertex="1" parent="1">
          <mxGeometry x="1470" y="110" width="120" height="60" as="geometry" />
        </mxCell>
        <mxCell id="NI7PQchnpD4Go9YrwPrF-15" value="Yes" style="text;html=1;strokeColor=none;fillColor=none;align=center;verticalAlign=middle;whiteSpace=wrap;rounded=0;" vertex="1" parent="1">
          <mxGeometry x="1000" y="220" width="60" height="30" as="geometry" />
        </mxCell>
        <mxCell id="NI7PQchnpD4Go9YrwPrF-16" value="Login/Membuat akun terlebih dahulu" style="rounded=0;whiteSpace=wrap;html=1;" vertex="1" parent="1">
          <mxGeometry x="1070" y="550" width="120" height="60" as="geometry" />
        </mxCell>
        <mxCell id="NI7PQchnpD4Go9YrwPrF-18" value="No" style="text;html=1;strokeColor=none;fillColor=none;align=center;verticalAlign=middle;whiteSpace=wrap;rounded=0;" vertex="1" parent="1">
          <mxGeometry x="970" y="550" width="60" height="30" as="geometry" />
        </mxCell>
        <mxCell id="NI7PQchnpD4Go9YrwPrF-28" value="Membagikan catatan ke pengguna lain" style="rounded=0;whiteSpace=wrap;html=1;" vertex="1" parent="1">
          <mxGeometry x="1080" y="390" width="120" height="60" as="geometry" />
        </mxCell>
        <mxCell id="NI7PQchnpD4Go9YrwPrF-38" style="edgeStyle=orthogonalEdgeStyle;rounded=0;orthogonalLoop=1;jettySize=auto;html=1;exitX=1;exitY=0.5;exitDx=0;exitDy=0;" edge="1" parent="1" source="NI7PQchnpD4Go9YrwPrF-36" target="NI7PQchnpD4Go9YrwPrF-8">
          <mxGeometry relative="1" as="geometry" />
        </mxCell>
        <mxCell id="NI7PQchnpD4Go9YrwPrF-36" value="generate token" style="rounded=0;whiteSpace=wrap;html=1;" vertex="1" parent="1">
          <mxGeometry x="730" y="220" width="120" height="60" as="geometry" />
        </mxCell>
        <mxCell id="NI7PQchnpD4Go9YrwPrF-52" value="AUTHENTICATION" style="rounded=0;whiteSpace=wrap;html=1;fillColor=#C3FFBF;" vertex="1" parent="1">
          <mxGeometry x="30" y="700" width="830" height="60" as="geometry" />
        </mxCell>
        <mxCell id="NI7PQchnpD4Go9YrwPrF-55" value="AUTHORIZATION" style="rounded=0;whiteSpace=wrap;html=1;fillColor=#FFCCCC;" vertex="1" parent="1">
          <mxGeometry x="880" y="700" width="830" height="60" as="geometry" />
        </mxCell>
      </root>
    </mxGraphModel>
  </diagram>
</mxfile>
